<svg width="100" height="100" viewBox="0 0 100 100" xmlns="http://www.w3.org/2000/svg">
    <g fill="none" fill-rule="evenodd">
        <path d="M0 0h100v100H0z"/>
        <path d="m49.993 92.455-2.306-1.484L9.738 51.636l-.028-.041-.234-.26-.198-.541-.15-.39L9 49.888v-.314l.022-.272.023-.082-.007-.133.215-.55L23.75 10.341l.005-.124.183-.373.117-.306.082-.092.091-.184.237-.218a2.83 2.83 0 0 1 .334-.331l.091-.082.519-.347.176-.05.195-.11.649-.118S26.7 8 26.76 8h47.916l.228.094c.137.035.271.082.404.141.156.058.361.151.575.298l.095.063.098.081-.004.003c.157.127.273.244.365.346l.241.219.096.189.069.077.158.38 14.564 38.38.126.168.074.358.086.225v.102l.031.108-.011.293.03.22-.085.555-.02.084a2.73 2.73 0 0 1-.274.704c-.013.024-.024.048-.037.07l-.117.296-.381.383-37.756 39.134-2.303 1.484a3.047 3.047 0 0 1-.935 0z" fill="#000"/>
        <path d="M89.276 49.652c-.002-.041.01-.081-.003-.12-.002-.006-.008-.01-.01-.016s.001-.012-.002-.018L74.613 10.902c-.002-.007-.01-.01-.012-.018-.004-.006 0-.014-.004-.021-.014-.028-.043-.044-.06-.068-.03-.038-.053-.078-.09-.106l-.022-.017c-.028-.02-.062-.021-.093-.034-.034-.013-.06-.037-.098-.043-.013-.002-.024.005-.037.005-.013-.002-.024-.011-.038-.011h-47.4c-.013 0-.024.009-.036.01-.013 0-.026-.006-.038-.004-.037.006-.064.03-.097.043-.032.013-.066.015-.095.034-.008.005-.013.012-.02.017-.039.028-.06.068-.09.106-.019.024-.047.04-.06.068-.004.007-.002.015-.005.02-.002.009-.01.012-.013.019L11.657 49.498c-.002.006 0 .012-.002.018-.002.006-.007.01-.009.016-.012.039 0 .079-.003.12 0 .037-.014.073-.007.109l.004.015c.011.046.04.083.063.125.016.028.02.062.043.087.002.003.008.005.01.008.003.003.003.008.006.01L50.11 89.755a.467.467 0 0 0 .161.11h.004l.002.002a.465.465 0 0 0 .364 0l.002-.002h.004a.476.476 0 0 0 .161-.11l38.348-39.747c.004-.003.004-.008.007-.011.003-.003.008-.005.01-.008.023-.025.026-.06.042-.087.024-.042.054-.08.064-.125l.004-.015c.007-.036-.006-.072-.007-.11" fill="#000"/>
        <path fill="#FFF8FF" d="m50.46 89.417 38.348-39.748L74.16 11.074h-47.4L12.11 49.669z"/>
        <path stroke="#000" stroke-width=".75" stroke-linecap="round" stroke-linejoin="round" d="m50.46 89.417 38.348-39.748L74.16 11.074h-47.4L12.11 49.669z"/>
        <path fill="#D5BDFF" d="m12.111 49.67 20.32-4.672L50.46 63.683v25.734z"/>
        <path stroke="#000" stroke-width=".75" stroke-linecap="round" stroke-linejoin="round" d="m12.111 49.67 20.32-4.672L50.46 63.683v25.734z"/>
        <path fill="#9176E5" d="m68.488 44.998 20.32 4.67L50.46 89.418V63.684z"/>
        <path stroke="#000" stroke-width=".75" stroke-linecap="round" stroke-linejoin="round" d="m68.488 44.998 20.32 4.67L50.46 89.418V63.684z"/>
        <path fill="#A1AAFF" d="M61.602 26.853 74.16 11.074 88.808 49.67 68.488 45z"/>
        <path stroke="#000" stroke-width=".75" stroke-linecap="round" stroke-linejoin="round" d="M61.602 26.853 74.16 11.074 88.808 49.67 68.488 45z"/>
        <path fill="#BE98FE" d="m39.318 26.853-12.56-15.779H74.16l-12.558 15.78z"/>
        <path stroke="#000" stroke-width=".75" stroke-linecap="round" stroke-linejoin="round" d="m39.318 26.853-12.56-15.779H74.16l-12.558 15.78z"/>
        <path fill="#F0D9FF" d="m26.76 11.074 12.558 15.779-6.887 18.145-20.32 4.671z"/>
        <path stroke="#000" stroke-width=".75" stroke-linecap="round" stroke-linejoin="round" d="m26.76 11.074 12.558 15.779-6.887 18.145-20.32 4.671z"/>
    </g>
</svg>
