<svg width="100" height="100" viewBox="0 0 100 100" xmlns="http://www.w3.org/2000/svg">
    <g fill="none" fill-rule="evenodd">
        <path d="M0 0h100v100H0z"/>
        <path d="M49.717 91.093a2.358 2.358 0 0 1-1.703-.72L9.846 50.812l-.062-.035-.182-.218-.227-.235-.026-.068-.024-.029-.075-.197-.113-.184-.108-.477a2.073 2.073 0 0 1-.024-.491c0-.045.002-.096.007-.152l-.005-.124s.075-.275.088-.316l.111-.37.043-.053L23.685 9.825l.002-.095.15-.304.101-.268.067-.071.051-.104.18-.167a2.19 2.19 0 0 1 .27-.267l.073-.066.394-.264.14-.04.137-.076.407-.075.15-.023s.165-.005.21-.005h47.808l.186.078c.12.033.22.071.3.105.107.041.242.103.386.194l.133.084.095.084c.105.088.191.176.26.256l.18.163.057.113.08.084.105.287.14.291.001.084L90.185 47.86l.04.05.088.288.113.299v.071l.02.065-.013.225.026.172-.073.443-.013.053a2.06 2.06 0 0 1-.202.523l-.026.053-.09.236-.243.245-.172.199-.05.029-38.164 39.556a2.373 2.373 0 0 1-1.709.726" fill="#000"/>
        <path d="M88.433 49.04c.005-.027-.004-.055-.005-.083-.002-.032.006-.062-.003-.093-.001-.005-.006-.008-.007-.012-.002-.005 0-.01-.002-.015L73.768 10.242c-.002-.005-.007-.008-.01-.014-.002-.005 0-.011-.002-.016-.011-.021-.032-.032-.047-.051-.022-.03-.04-.061-.07-.083l-.016-.014c-.021-.013-.046-.015-.07-.024-.026-.011-.05-.031-.078-.035-.01-.002-.02.004-.03.003-.01-.001-.017-.008-.027-.008H26.016c-.01 0-.017.007-.027.008-.01 0-.02-.005-.03-.003-.03.004-.051.024-.078.035-.024.009-.05.01-.07.024l-.016.014c-.03.022-.048.053-.07.083-.014.019-.036.03-.046.05-.003.006-.001.012-.003.017-.003.006-.008.009-.01.014L11.018 48.837v.004l-.001.01c-.001.005-.006.008-.007.013-.01.03-.002.062-.003.093-.001.028-.011.056-.005.084 0 .004.002.007.003.01.008.035.03.063.047.094.012.023.016.05.034.072.003.003.007.004.009.007l.004.007 38.348 39.748a.384.384 0 0 0 .124.084h.004c0 .002 0 .002.002.003a.379.379 0 0 0 .28 0l.002-.002.004-.001a.373.373 0 0 0 .124-.084L88.336 49.23l.004-.007c.002-.003.006-.004.009-.007.018-.021.02-.048.034-.072.017-.031.039-.06.047-.093 0-.004.002-.007.003-.011" fill="#000"/>
        <path fill="#FFFBF3" d="m49.717 88.718 38.35-39.748-14.649-38.595H26.016L11.37 48.97z"/>
        <path stroke="#000" stroke-width=".75" stroke-linecap="round" stroke-linejoin="round" d="m49.717 88.718 38.35-39.748-14.649-38.595H26.016L11.37 48.97z"/>
        <path fill="red" d="m11.369 48.97 20.32-4.672 18.028 18.686v25.734z"/>
        <path stroke="#000" stroke-width=".75" stroke-linecap="round" stroke-linejoin="round" d="m11.369 48.97 20.32-4.672 18.028 18.686v25.734z"/>
        <path fill="#760036" d="m67.745 44.299 20.32 4.672-38.348 39.747V62.985z"/>
        <path stroke="#000" stroke-width=".75" stroke-linecap="round" stroke-linejoin="round" d="m67.745 44.299 20.32 4.672-38.348 39.747V62.985z"/>
        <path fill="#D81400" d="m60.86 26.154 12.558-15.778L88.066 48.97l-20.32-4.672z"/>
        <path stroke="#000" stroke-width=".75" stroke-linecap="round" stroke-linejoin="round" d="m60.86 26.154 12.558-15.778L88.066 48.97l-20.32-4.672z"/>
        <path fill="#FF4800" d="M38.575 26.154 26.016 10.376h47.402L60.859 26.154z"/>
        <path stroke="#000" stroke-width=".75" stroke-linecap="round" stroke-linejoin="round" d="M38.575 26.154 26.016 10.376h47.402L60.859 26.154z"/>
        <path fill="#FFDAD2" d="m26.016 10.375 12.56 15.78-6.887 18.143-20.32 4.672z"/>
        <path stroke="#000" stroke-width=".75" stroke-linecap="round" stroke-linejoin="round" d="m26.016 10.375 12.56 15.78-6.887 18.143-20.32 4.672z"/>
    </g>
</svg>
