<svg width="100" height="100" viewBox="0 0 100 100" xmlns="http://www.w3.org/2000/svg">
    <g fill="none" fill-rule="evenodd">
        <path d="M0 0h100v100H0z"/>
        <path d="m26.865 91.235-.321-.111-.291-.052-.48-.258-.389-.229-.184-.216a2.875 2.875 0 0 1-.533-.665L2.411 51.154a2.794 2.794 0 0 1-.317-.802l-.089-.228L2 49.619c0-.532.139-1.058.401-1.521L24.663 9.537A3.09 3.09 0 0 1 27.326 8h44.507c1.093 0 2.113.588 2.661 1.533L96.75 48.08c.544.952.544 2.123.005 3.064L74.497 89.698a3.09 3.09 0 0 1-2.664 1.537H26.865z" fill="#000"/>
        <path d="M83.381 30.103 72.254 10.832a.486.486 0 0 0-.42-.243H27.325a.487.487 0 0 0-.42.243l-11.128 19.27v.003L4.653 49.375a.494.494 0 0 0-.064.244c0 .013.01.026.01.039.006.07.018.14.054.202l22.252 38.544c.032.054.081.09.13.129.018.014.03.037.048.048.036.02.08.022.121.033.04.01.077.032.121.032h44.508a.487.487 0 0 0 .421-.242l11.21-19.412v-.004L94.508 49.86a.488.488 0 0 0 0-.485L83.381 30.103z" fill="#000"/>
        <path fill="#FFF2C1" d="m5.074 49.617 22.253-38.544h44.507l22.254 38.544-22.254 38.544H27.325z"/>
        <path stroke="#000" stroke-width=".75" stroke-linecap="round" stroke-linejoin="round" d="m5.074 49.617 22.253-38.544h44.507l22.254 38.544-22.254 38.544H27.325z"/>
        <path fill="#EEFDFF" d="M60.627 30.484H38.533L27.487 49.617l11.046 19.134h22.094l11.047-19.134z"/>
        <path stroke="#000" stroke-width=".75" stroke-linecap="round" stroke-linejoin="round" d="M60.627 30.484H38.533L27.487 49.617l11.046 19.134h22.094l11.047-19.134z"/>
        <path fill="#0FF" d="m27.327 11.073 11.207 19.411h22.093l11.207-19.41z"/>
        <path stroke="#000" stroke-width=".75" stroke-linecap="round" stroke-linejoin="round" d="m27.327 11.073 11.207 19.411h22.093l11.207-19.41z"/>
        <path fill="#0FF" d="M5.074 49.617h22.414l11.045-19.133-11.207-19.41z"/>
        <path stroke="#000" stroke-width=".75" stroke-linecap="round" stroke-linejoin="round" d="M5.074 49.617h22.414l11.045-19.133-11.207-19.41z"/>
        <path fill="#52DAFF" d="M71.834 11.073 60.627 30.484l11.047 19.133h22.413z"/>
        <path stroke="#000" stroke-width=".75" stroke-linecap="round" stroke-linejoin="round" d="M71.834 11.073 60.627 30.484l11.047 19.133h22.413z"/>
        <path fill="#16C2F8" d="m60.627 68.751 11.207 19.41 22.253-38.544H71.674z"/>
        <path stroke="#000" stroke-width=".75" stroke-linecap="round" stroke-linejoin="round" d="m60.627 68.751 11.207 19.41 22.253-38.544H71.674z"/>
        <path fill="#BFF" d="M38.533 30.484 27.487 49.617 16.2 30.345z"/>
        <path stroke="#000" stroke-width=".75" stroke-linecap="round" stroke-linejoin="round" d="M38.533 30.484 27.487 49.617 16.2 30.345z"/>
        <path fill="#0FF" d="M38.533 68.751h22.094l-9.506 19.41z"/>
        <path stroke="#000" stroke-width=".75" stroke-linecap="round" stroke-linejoin="round" d="M38.533 68.751h22.094l-9.506 19.41z"/>
        <path fill="#48C7FF" d="M27.327 11.073 16.2 30.345l22.333.14z"/>
        <path stroke="#000" stroke-width=".75" stroke-linecap="round" stroke-linejoin="round" d="M27.327 11.073 16.2 30.345l22.333.14z"/>
        <path fill="#48C7FF" d="M5.074 49.617h22.414L16.2 68.748z"/>
        <path stroke="#000" stroke-width=".75" stroke-linecap="round" stroke-linejoin="round" d="M5.074 49.617h22.414L16.2 68.748z"/>
        <path fill="#52DAFF" d="m27.327 88.161 11.207-19.41 12.587 19.41z"/>
        <path stroke="#000" stroke-width=".75" stroke-linecap="round" stroke-linejoin="round" d="m27.327 88.161 11.207-19.41 12.587 19.41z"/>
        <path fill="#8E82FF" d="m51.121 88.161 9.506-19.41 11.206 19.41z"/>
        <path stroke="#000" stroke-width=".75" stroke-linecap="round" stroke-linejoin="round" d="m51.121 88.161 9.506-19.41 11.206 19.41z"/>
        <path fill="#2B82D8" d="m83.042 68.749-22.415.002 11.207 19.41z"/>
        <path stroke="#000" stroke-width=".75" stroke-linecap="round" stroke-linejoin="round" d="m83.042 68.749-22.415.002 11.207 19.41z"/>
        <path fill="#00FFBC" d="m27.487 49.617 11.046 19.134-11.206 19.41L16.2 68.748z"/>
        <path stroke="#000" stroke-width=".75" stroke-linecap="round" stroke-linejoin="round" d="m27.487 49.617 11.046 19.134-11.206 19.41L16.2 68.748z"/>
        <path fill="#4D9FFF" d="M49.58 11.073h22.253L60.627 30.484z"/>
        <path stroke="#000" stroke-width=".75" stroke-linecap="round" stroke-linejoin="round" d="M49.58 11.073h22.253L60.627 30.484z"/>
        <path fill="#4D9FFF" d="M82.96 30.345 71.675 49.617h22.413z"/>
        <path stroke="#000" stroke-width=".75" stroke-linecap="round" stroke-linejoin="round" d="M82.96 30.345 71.675 49.617h22.413z"/>
    </g>
</svg>
