<svg width="100" height="100" viewBox="0 0 100 100" xmlns="http://www.w3.org/2000/svg">
    <g fill="none" fill-rule="evenodd">
        <path d="M0 0h100v100H0z"/>
        <path d="M49.923 96.656c-.324 0-.646-.052-.954-.153l-.254-.035-.363-.239-.323-.17-.086-.106-34.966-23.714-.207-.269-.142-.133-.103-.171-.186-.234-.129-.378a2.958 2.958 0 0 1-.094-.308 2.927 2.927 0 0 1-.116-.799v-40.68l.101-.313.037-.218.095-.205.101-.303s.345-.436.403-.5a2.78 2.78 0 0 1 .628-.577L47.893 3.734l.096-.127.363-.184.284-.194.163-.031.145-.072.266-.036.138-.044L49.91 3l.519.015.203.07.25.03.167.084.143.028.315.207.341.184.077.097 34.944 23.699.207.268.142.135.105.172.185.234.128.379c.043.115.072.22.094.306.051.18.116.46.116.799v40.679l-.101.314-.037.218-.096.206-.101.303-.239.301a2.608 2.608 0 0 1-.159.195 2.853 2.853 0 0 1-.632.58L51.907 95.95l-.099.122-.314.159-.34.232-.256.036a3.121 3.121 0 0 1-.975.157" fill="#000"/>
        <path d="m85.202 29.484-.007-.011c-.013-.024-.036-.038-.054-.06-.03-.037-.055-.08-.096-.108L50.195 5.67c-.007-.006-.017-.005-.026-.01-.007-.004-.01-.013-.018-.017-.031-.016-.067-.013-.1-.022-.038-.011-.075-.03-.115-.031l-.025-.001c-.042 0-.08.02-.12.033-.031.009-.065.005-.095.02-.008.005-.011.014-.018.018-.01.005-.02.004-.028.01L14.8 29.305c-.04.029-.065.07-.095.108-.017.022-.04.036-.053.06l-.008.01c-.013.028-.013.06-.022.089-.013.045-.033.087-.033.135v40.24c0 .048.02.09.033.136.009.029.009.06.022.088l.008.01c.013.024.036.038.053.06.03.038.055.08.096.108L49.65 93.984c.008.005.018.003.026.008s.01.014.02.019a.495.495 0 0 0 .455 0c.008-.005.01-.014.019-.02.009-.004.019-.002.026-.007l34.849-23.635c.04-.028.067-.07.096-.108.018-.022.04-.036.054-.06l.007-.01c.014-.027.013-.06.022-.088.014-.045.034-.088.034-.136v-40.24c0-.048-.02-.09-.034-.135-.01-.03-.008-.061-.022-.088" fill="#000"/>
        <path fill="#FFFFE1" d="m49.923 6.074 34.849 23.635v40.24L49.923 93.584 15.074 69.949v-40.24z"/>
        <path stroke="#000" stroke-width=".75" stroke-linecap="round" stroke-linejoin="round" d="m49.923 6.074 34.849 23.635v40.24L49.923 93.584 15.074 69.949v-40.24z"/>
        <path fill="#EEFDFF" d="m49.923 30.68 15.251 10.344v17.61L49.923 68.977 34.672 58.634v-17.61z"/>
        <path stroke="#000" stroke-width=".75" stroke-linecap="round" stroke-linejoin="round" d="m49.923 30.68 15.251 10.344v17.61L49.923 68.977 34.672 58.634v-17.61z"/>
        <path fill="#00FFBC" d="M49.923 6.074V30.68L34.672 41.024 15.074 29.709z"/>
        <path stroke="#000" stroke-width=".75" stroke-linecap="round" stroke-linejoin="round" d="M49.923 6.074V30.68L34.672 41.024 15.074 29.709z"/>
        <path fill="#16C2F8" d="m65.174 41.024 19.598-11.315L49.923 6.074V30.68z"/>
        <path stroke="#000" stroke-width=".75" stroke-linecap="round" stroke-linejoin="round" d="m65.174 41.024 19.598-11.315L49.923 6.074V30.68z"/>
        <path fill="#8E82FF" d="m65.174 58.634 19.598 11.315v-40.24L65.174 41.024z"/>
        <path stroke="#000" stroke-width=".75" stroke-linecap="round" stroke-linejoin="round" d="m65.174 58.634 19.598 11.315v-40.24L65.174 41.024z"/>
        <path fill="#2B82D8" d="M49.923 93.584V68.978l15.251-10.344 19.598 11.315z"/>
        <path stroke="#000" stroke-width=".75" stroke-linecap="round" stroke-linejoin="round" d="M49.923 93.584V68.978l15.251-10.344 19.598 11.315z"/>
        <path fill="#52DAFF" d="M34.672 58.634 15.074 69.949l34.85 23.635V68.977z"/>
        <path stroke="#000" stroke-width=".75" stroke-linecap="round" stroke-linejoin="round" d="M34.672 58.634 15.074 69.949l34.85 23.635V68.977z"/>
        <path fill="#0FF" d="M34.672 41.024v17.61L15.074 69.949v-40.24z"/>
        <path stroke="#000" stroke-width=".75" stroke-linecap="round" stroke-linejoin="round" d="M34.672 41.024v17.61L15.074 69.949v-40.24z"/>
    </g>
</svg>
