<svg width="100" height="100" viewBox="0 0 100 100" xmlns="http://www.w3.org/2000/svg">
    <g fill="none" fill-rule="evenodd">
        <path d="M0 0h100v100H0z"/>
        <path d="M49.86 99.289c-.375 0-.748-.069-1.097-.202l-.249-.048-.278-.204-.247-.128-.126-.15L8.877 69.118s-.201-.291-.206-.296l-.21-.222-.204-.444-.197-.45-.002-.045-.048-.099-.01-.637.03-34.488.09-.296.04-.242.19-.406c.159-.369.49-.79.904-1.102L48.578 1.197l.247-.03.249-.166L50.225 1l.099.028.131.01.181.071c.067.016.135.036.203.06l.396.056.577.474 38.783 29.543.176.049.427.426c.067.062.133.128.195.196l.611.612v.406l.067.169.032.177c.042.161.091.409.091.705V67.51l-.067.144-.001.019-.335.851-.265.292-.149.217-.359.313L51.84 98.574l-.121.14-.297.153-.276.186-.199.038c-.346.13-.717.198-1.087.198" fill="#000"/>
        <path d="M89.563 33.797a.472.472 0 0 0-.14-.195l-.006-.003-.002-.002-39.26-29.908c-.008-.006-.018-.003-.025-.01a.47.47 0 0 0-.21-.074c-.018-.002-.03-.013-.049-.013l-.01-.003h-.01c-.017.002-.03.012-.046.014a.466.466 0 0 0-.213.075c-.007.005-.015.002-.022.007L10.814 32.457a.475.475 0 0 0-.149.194c-.012.025-.012.05-.019.077-.01.039-.027.076-.027.118l-.03 34.079c0 .02.016.037.018.057l.001.01c.005.03.004.056.014.083.004.014.001.03.006.043.01.02.03.033.041.053a.487.487 0 0 0 .057.072c.02.022.032.05.055.068h.001l38.786 29.29c.011.009.026.007.037.013.015.01.021.027.038.035a.485.485 0 0 0 .433.001c.015-.008.022-.024.036-.033.012-.007.027-.004.038-.012l39.261-29.29.002-.003c.024-.018.036-.047.056-.07a.473.473 0 0 0 .055-.071c.012-.02.032-.032.041-.053.006-.013.002-.027.006-.041.01-.027.01-.051.013-.08l.003-.017c.003-.02.018-.035.018-.055V33.982c0-.04-.016-.076-.026-.114-.006-.025-.006-.048-.016-.071" fill="#000"/>
        <path fill="#0FF" d="m49.86 4.074 19.858 34.433h-39.24z"/>
        <path stroke="#000" stroke-width=".75" stroke-linecap="round" stroke-linejoin="round" d="m49.86 4.074 19.858 34.433h-39.24z"/>
        <path fill="#00FFBC" d="M30.478 38.507 50.103 72.94l-39.03-6.015z"/>
        <path stroke="#000" stroke-width=".75" stroke-linecap="round" stroke-linejoin="round" d="M30.478 38.507 50.103 72.94l-39.03-6.015z"/>
        <path fill="#16C2F8" d="M69.727 38.507 49.86 72.94l39.26-6.015z"/>
        <path stroke="#000" stroke-width=".75" stroke-linecap="round" stroke-linejoin="round" d="M69.727 38.507 49.86 72.94l39.26-6.015z"/>
        <path fill="#EEFDFF" d="m49.86 72.94 19.858-34.433h-39.24z"/>
        <path stroke="#000" stroke-width=".75" stroke-linecap="round" stroke-linejoin="round" d="m49.86 72.94 19.858-34.433h-39.24z"/>
        <path fill="#BFF" d="M11.104 32.846 49.86 4.074 30.478 38.507z"/>
        <path stroke="#000" stroke-width=".75" stroke-linecap="round" stroke-linejoin="round" d="M11.104 32.846 49.86 4.074 30.478 38.507z"/>
        <path fill="#4D9FFF" d="M69.718 38.507 49.86 4.074l39.26 29.908z"/>
        <path stroke="#000" stroke-width=".75" stroke-linecap="round" stroke-linejoin="round" d="M69.718 38.507 49.86 4.074l39.26 29.908z"/>
        <path fill="#48C7FF" d="m11.104 32.846-.03 34.08 19.404-28.419z"/>
        <path stroke="#000" stroke-width=".75" stroke-linecap="round" stroke-linejoin="round" d="m11.104 32.846-.03 34.08 19.404-28.419z"/>
        <path fill="#8E82FF" d="m69.718 38.507 19.403-4.525v32.943z"/>
        <path stroke="#000" stroke-width=".75" stroke-linecap="round" stroke-linejoin="round" d="m69.718 38.507 19.403-4.525v32.943z"/>
        <path fill="#52DAFF" d="M11.074 66.925 49.86 96.216V72.94z"/>
        <path stroke="#000" stroke-width=".75" stroke-linecap="round" stroke-linejoin="round" d="M11.074 66.925 49.86 96.216V72.94z"/>
        <path fill="#2B82D8" d="M89.12 66.925 49.86 72.94v23.276z"/>
        <path stroke="#000" stroke-width=".75" stroke-linecap="round" stroke-linejoin="round" d="M89.12 66.925 49.86 72.94v23.276z"/>
    </g>
</svg>
