<svg width="100" height="100" viewBox="0 0 100 100" xmlns="http://www.w3.org/2000/svg">
    <g fill="none" fill-rule="evenodd">
        <path d="M0 0h100v100H0z"/>
        <path d="M49.923 96.655c-.324 0-.646-.052-.954-.153l-.254-.035-.363-.239-.323-.17-.086-.106-34.966-23.713-.207-.27-.142-.133-.103-.171-.186-.234-.129-.378a2.958 2.958 0 0 1-.094-.308 2.914 2.914 0 0 1-.116-.799v-40.68l.101-.313.037-.217.095-.206.101-.303s.345-.436.403-.5c.149-.185.346-.388.628-.576L47.893 3.733l.096-.126.363-.185.284-.193.163-.032.145-.072.266-.035.138-.045L49.91 3l.519.015.203.069.25.031.167.083.143.028.315.207.341.185.077.096 34.944 23.699.207.268.142.136.105.171.185.234.128.379c.043.116.072.221.094.306.051.18.116.46.116.799v40.68l-.101.313-.037.218-.096.206-.101.303-.239.301a2.42 2.42 0 0 1-.159.195 2.805 2.805 0 0 1-.632.58L51.907 95.95l-.099.121-.314.159-.34.232-.256.036a3.121 3.121 0 0 1-.975.157" fill="#000"/>
        <path d="m85.202 29.483-.007-.01c-.013-.024-.036-.04-.054-.06-.03-.038-.055-.08-.096-.108L50.195 5.67c-.007-.006-.017-.004-.026-.01-.007-.004-.01-.013-.018-.017-.031-.016-.067-.013-.1-.022-.038-.011-.075-.03-.115-.032h-.025c-.042.002-.08.02-.12.033-.031.009-.065.005-.095.02-.008.005-.011.014-.018.018-.01.006-.02.004-.028.01L14.8 29.305c-.04.028-.065.07-.095.108-.017.02-.04.036-.053.06l-.008.01c-.013.027-.013.059-.022.088-.013.045-.033.088-.033.136v40.239c0 .048.02.09.033.136.009.029.009.06.022.088l.008.01c.013.024.036.039.053.06.03.038.055.08.096.108L49.65 93.983c.008.006.018.003.026.008s.01.014.02.019a.484.484 0 0 0 .455 0c.008-.005.01-.014.019-.02.009-.004.019-.001.026-.007l34.849-23.635c.04-.028.067-.07.096-.108.018-.021.04-.036.054-.06l.007-.01c.014-.027.013-.06.022-.088.014-.045.034-.088.034-.136v-40.24c0-.047-.02-.09-.034-.135-.01-.03-.008-.061-.022-.088" fill="#000"/>
        <path fill="#FFFFE1" d="m49.923 6.073 34.849 23.635v40.24L49.923 93.583 15.074 69.948v-40.24z"/>
        <path stroke="#000" stroke-width=".75" stroke-linecap="round" stroke-linejoin="round" d="m49.923 6.073 34.849 23.635v40.24L49.923 93.583 15.074 69.948v-40.24z"/>
        <path fill="#FFF8FF" d="m49.923 30.68 15.251 10.343v17.61L49.923 68.977 34.672 58.633v-17.61z"/>
        <path stroke="#000" stroke-width=".75" stroke-linecap="round" stroke-linejoin="round" d="m49.923 30.68 15.251 10.343v17.61L49.923 68.977 34.672 58.633v-17.61z"/>
        <path fill="#FFC8FF" d="M49.923 6.073v24.606L34.672 41.023 15.074 29.708z"/>
        <path stroke="#000" stroke-width=".75" stroke-linecap="round" stroke-linejoin="round" d="M49.923 6.073v24.606L34.672 41.023 15.074 29.708z"/>
        <path fill="#BE98FE" d="m65.174 41.023 19.598-11.315L49.923 6.073V30.68z"/>
        <path stroke="#000" stroke-width=".75" stroke-linecap="round" stroke-linejoin="round" d="m65.174 41.023 19.598-11.315L49.923 6.073V30.68z"/>
        <path fill="#A1AAFF" d="m65.174 58.633 19.598 11.315v-40.24L65.174 41.023z"/>
        <path stroke="#000" stroke-width=".75" stroke-linecap="round" stroke-linejoin="round" d="m65.174 58.633 19.598 11.315v-40.24L65.174 41.023z"/>
        <path fill="#9176E5" d="M49.923 93.583V68.977l15.251-10.344 19.598 11.315z"/>
        <path stroke="#000" stroke-width=".75" stroke-linecap="round" stroke-linejoin="round" d="M49.923 93.583V68.977l15.251-10.344 19.598 11.315z"/>
        <path fill="#D5BDFF" d="M34.672 58.633 15.074 69.948l34.85 23.635V68.977z"/>
        <path stroke="#000" stroke-width=".75" stroke-linecap="round" stroke-linejoin="round" d="M34.672 58.633 15.074 69.948l34.85 23.635V68.977z"/>
        <path fill="#F0D9FF" d="M34.672 41.023v17.61L15.074 69.948v-40.24z"/>
        <path stroke="#000" stroke-width=".75" stroke-linecap="round" stroke-linejoin="round" d="M34.672 41.023v17.61L15.074 69.948v-40.24z"/>
    </g>
</svg>
