<svg width="100" height="100" viewBox="0 0 100 100" xmlns="http://www.w3.org/2000/svg">
    <g fill="none" fill-rule="evenodd">
        <path d="M0 0h100v100H0z"/>
        <path d="m49.993 92.455-2.306-1.484L9.738 51.636l-.028-.041-.234-.26-.198-.541-.15-.39L9 49.888l.042-.317-.02-.269.023-.082-.007-.133.215-.551L23.75 10.341l.005-.124.183-.373.117-.306.082-.092.091-.184.237-.218a2.83 2.83 0 0 1 .334-.331l.091-.082.519-.347.176-.05.195-.11.649-.118S26.7 8 26.76 8h47.916l.228.093c.137.036.271.083.404.142.156.058.361.151.575.298l.095.063.098.081-.004.003c.157.127.273.244.365.346l.241.219.096.189.069.077.158.379 14.564 38.381.126.168.074.358.086.225v.102l.031.108-.011.293.03.22-.085.555-.02.083a2.7 2.7 0 0 1-.274.704c-.013.024-.024.049-.037.071l-.117.296-.381.383-37.756 39.134-2.303 1.484a3.047 3.047 0 0 1-.935 0z" fill="#000"/>
        <path d="M89.276 49.652c-.002-.041.01-.081-.003-.12-.002-.006-.008-.01-.01-.016s.001-.012-.002-.018L74.613 10.902c-.002-.007-.01-.011-.012-.018-.004-.006 0-.014-.004-.021-.014-.03-.043-.044-.06-.068-.03-.038-.053-.078-.09-.106l-.022-.017c-.028-.02-.062-.021-.093-.034-.034-.013-.06-.037-.098-.043-.013-.002-.024.005-.037.004-.013-.001-.024-.01-.038-.01h-47.4c-.013 0-.024.009-.036.01-.013 0-.026-.006-.038-.004-.037.006-.064.03-.097.043-.032.013-.066.015-.095.034-.008.005-.013.012-.02.017-.039.028-.06.068-.09.106-.019.024-.047.039-.06.068-.004.007-.002.015-.005.02-.002.008-.01.012-.013.019L11.657 49.498c-.002.006 0 .012-.002.018-.002.006-.007.01-.009.016-.012.039 0 .079-.003.12 0 .037-.014.072-.007.108a.075.075 0 0 0 .004.016c.011.046.04.083.063.124.016.029.02.063.043.088.002.003.008.004.01.008.003.003.003.008.006.01L50.11 89.755a.464.464 0 0 0 .165.11l.002.002a.484.484 0 0 0 .364 0l.002-.002.004-.001a.474.474 0 0 0 .161-.11l38.348-39.746c.004-.003.004-.008.007-.011.003-.004.008-.005.01-.008.023-.025.026-.06.042-.088.024-.041.054-.078.064-.124l.004-.016c.007-.036-.006-.071-.007-.108" fill="#000"/>
        <path fill="#FFFFE1" d="m50.46 89.417 38.348-39.748L74.16 11.074h-47.4L12.11 49.669z"/>
        <path stroke="#000" stroke-width=".75" stroke-linecap="round" stroke-linejoin="round" d="m50.46 89.417 38.348-39.748L74.16 11.074h-47.4L12.11 49.669z"/>
        <path fill="#FFD338" d="m12.111 49.67 20.32-4.673L50.46 63.683v25.734z"/>
        <path stroke="#000" stroke-width=".75" stroke-linecap="round" stroke-linejoin="round" d="m12.111 49.67 20.32-4.673L50.46 63.683v25.734z"/>
        <path fill="#FF7224" d="m68.488 44.997 20.32 4.672L50.46 89.416V63.683z"/>
        <path stroke="#000" stroke-width=".75" stroke-linecap="round" stroke-linejoin="round" d="m68.488 44.997 20.32 4.672L50.46 89.416V63.683z"/>
        <path fill="#FF8D31" d="M61.602 26.853 74.16 11.074 88.808 49.67l-20.32-4.672z"/>
        <path stroke="#000" stroke-width=".75" stroke-linecap="round" stroke-linejoin="round" d="M61.602 26.853 74.16 11.074 88.808 49.67l-20.32-4.672z"/>
        <path fill="#FFAC00" d="m39.318 26.853-12.56-15.779H74.16l-12.558 15.78z"/>
        <path stroke="#000" stroke-width=".75" stroke-linecap="round" stroke-linejoin="round" d="m39.318 26.853-12.56-15.779H74.16l-12.558 15.78z"/>
        <path fill="#FFF2C1" d="m26.76 11.074 12.558 15.779-6.887 18.144-20.32 4.672z"/>
        <path stroke="#000" stroke-width=".75" stroke-linecap="round" stroke-linejoin="round" d="m26.76 11.074 12.558 15.779-6.887 18.144-20.32 4.672z"/>
    </g>
</svg>
