<svg width="100" height="100" viewBox="0 0 100 100" xmlns="http://www.w3.org/2000/svg">
    <g fill="none" fill-rule="evenodd">
        <path d="M0 0h100v100H0z"/>
        <path d="M24.522 97.59c-.45 0-.889-.1-1.306-.298l-.18-.079-.198-.134a2.745 2.745 0 0 1-.49-.389L3.651 77.993l-.325-.549-.117-.266-.113-.32-.025-.161-.067-.254L3 25.188l.067-.271.02-.146.122-.359.117-.265.291-.501.283-.298L22.582 4.666l.269-.163a1.59 1.59 0 0 1 .212-.127l.143-.085.272-.106.231-.082.196-.033.234-.06.383-.01h50.893l.253.064.138.017.535.186.644.374 18.953 18.953.366.622.201.541.043.329-2.359.304-.2.052 2.602.08v50.904l-.07.268a2.854 2.854 0 0 1-.111.404l-.079.225-.16.296-.073.108-.148.258-18.953 18.951-.266.157a2.995 2.995 0 0 1-1.662.497H24.522z" fill="#000"/>
        <path d="M93.97 76.236c.007-.021.007-.042.012-.063.008-.035.02-.068.02-.105V25.522c0-.036-.012-.07-.02-.105-.005-.021-.005-.042-.012-.063-.007-.018-.017-.034-.026-.052-.01-.018-.022-.033-.034-.051-.017-.024-.028-.052-.05-.073l-9.997-9.998-8.45-8.449c-.02-.021-.048-.033-.072-.049-.018-.012-.033-.025-.052-.034-.017-.009-.033-.019-.05-.026-.02-.006-.037-.007-.056-.011-.037-.009-.074-.022-.113-.022H24.522c-.03 0-.058.012-.087.017-.03.005-.06.006-.087.017-.016.006-.03.016-.045.025-.02.009-.034.022-.052.034-.024.016-.052.028-.073.049l-9.38 9.38-9.067 9.067c-.021.021-.032.049-.05.073-.011.018-.024.033-.033.051-.01.018-.02.034-.026.052-.007.021-.007.042-.012.063-.008.035-.021.069-.021.105v50.546c0 .037.013.07.02.105.006.021.006.042.013.063.007.019.017.034.026.051.009.019.022.034.034.052.017.024.028.052.049.073l8.839 8.839 9.608 9.609c.02.021.049.032.073.048.018.013.033.025.052.035a.493.493 0 0 0 .219.058H75.07c.077 0 .15-.024.219-.058.019-.01.034-.022.052-.035.024-.016.052-.027.072-.048l9.609-9.609 8.839-8.839c.02-.021.032-.049.049-.073.012-.018.024-.033.034-.052.009-.017.019-.032.026-.051" fill="#000"/>
        <path fill="#EDFFE1" d="M75.069 94.516H24.522L6.075 76.068V25.521L24.522 7.074h50.547l18.448 18.447v50.547z"/>
        <path stroke="#000" stroke-width=".75" stroke-linecap="round" stroke-linejoin="round" d="M75.069 94.516H24.522L6.075 76.068V25.521L24.522 7.074h50.547l18.448 18.447v50.547z"/>
        <path fill="#FF8C40" d="M67.494 81.412H32.097L19.18 68.494V33.097l12.918-12.919h35.397l12.918 12.92v35.396z"/>
        <path stroke="#000" stroke-width=".75" stroke-linecap="round" stroke-linejoin="round" d="M67.494 81.412H32.097L19.18 68.494V33.097l12.918-12.919h35.397l12.918 12.92v35.396z"/>
        <path fill="#FFFFE1" d="M59.667 67.872H39.924l-7.205-7.206V40.923l7.205-7.205h19.743l7.206 7.205v19.743z"/>
        <path stroke="#000" stroke-width=".75" stroke-linecap="round" stroke-linejoin="round" d="M59.667 67.872H39.924l-7.205-7.206V40.923l7.205-7.205h19.743l7.206 7.205v19.743z"/>
        <path fill="#FFD338" d="m32.097 20.178 7.827 13.54h19.743l7.827-13.54z"/>
        <path stroke="#000" stroke-width=".75" stroke-linecap="round" stroke-linejoin="round" d="m32.097 20.178 7.827 13.54h19.743l7.827-13.54z"/>
        <path fill="#FFD338" d="m32.719 40.923-13.54-7.827v35.398l13.54-7.828z"/>
        <path stroke="#000" stroke-width=".75" stroke-linecap="round" stroke-linejoin="round" d="m32.719 40.923-13.54-7.827v35.398l13.54-7.828z"/>
        <path fill="#FF8C40" d="m39.924 67.872-7.827 13.54h35.397l-7.827-13.54z"/>
        <path stroke="#000" stroke-width=".75" stroke-linecap="round" stroke-linejoin="round" d="m39.924 67.872-7.827 13.54h35.397l-7.827-13.54z"/>
        <path fill="#FFAC00" d="m66.873 60.667 13.54 7.827V33.097l-13.54 7.827z"/>
        <path stroke="#000" stroke-width=".75" stroke-linecap="round" stroke-linejoin="round" d="m66.873 60.667 13.54 7.827V33.097l-13.54 7.827z"/>
        <path fill="#FFF2C1" d="m32.097 20.178 7.827 13.54-7.205 7.205-13.54-7.827z"/>
        <path stroke="#000" stroke-width=".75" stroke-linecap="round" stroke-linejoin="round" d="m32.097 20.178 7.827 13.54-7.205 7.205-13.54-7.827z"/>
        <path fill="#FFAC00" d="m19.179 68.494 13.54-7.827 7.206 7.205-7.828 13.54z"/>
        <path stroke="#000" stroke-width=".75" stroke-linecap="round" stroke-linejoin="round" d="m19.179 68.494 13.54-7.827 7.206 7.205-7.828 13.54z"/>
        <path fill="#FF7224" d="m80.413 68.494-13.54-7.827-7.206 7.205 7.828 13.54z"/>
        <path stroke="#000" stroke-width=".75" stroke-linecap="round" stroke-linejoin="round" d="m80.413 68.494-13.54-7.827-7.206 7.205 7.828 13.54z"/>
        <path fill="#FFD338" d="m19.179 33.097-4.037-16.643 16.955 3.725z"/>
        <path stroke="#000" stroke-width=".75" stroke-linecap="round" stroke-linejoin="round" d="m19.179 33.097-4.037-16.643 16.955 3.725z"/>
        <path fill="#FFF2C1" d="m67.494 20.178 16.024-4.655-3.106 17.573z"/>
        <path stroke="#000" stroke-width=".75" stroke-linecap="round" stroke-linejoin="round" d="m67.494 20.178 16.024-4.655-3.106 17.573z"/>
        <path fill="#FFAC00" d="m80.413 68.494 4.265 16.414-17.183-3.496z"/>
        <path stroke="#000" stroke-width=".75" stroke-linecap="round" stroke-linejoin="round" d="m80.413 68.494 4.265 16.414-17.183-3.496z"/>
        <path fill="#FFFFE1" d="m19.179 68.494-4.266 16.414 17.184-3.496z"/>
        <path stroke="#000" stroke-width=".75" stroke-linecap="round" stroke-linejoin="round" d="m19.179 68.494-4.266 16.414 17.184-3.496z"/>
        <path fill="#FFAC00" d="M19.179 33.097 6.075 25.522l9.067-9.068z"/>
        <path stroke="#000" stroke-width=".75" stroke-linecap="round" stroke-linejoin="round" d="M19.179 33.097 6.075 25.522l9.067-9.068z"/>
        <path fill="#FF8C40" d="M32.097 20.178 24.522 7.074l-9.38 9.38z"/>
        <path stroke="#000" stroke-width=".75" stroke-linecap="round" stroke-linejoin="round" d="M32.097 20.178 24.522 7.074l-9.38 9.38z"/>
        <path fill="#FFD338" d="M67.494 20.178 75.07 7.074l8.45 8.45z"/>
        <path stroke="#000" stroke-width=".75" stroke-linecap="round" stroke-linejoin="round" d="M67.494 20.178 75.07 7.074l8.45 8.45z"/>
        <path fill="#FF7224" d="m80.413 33.097 13.104-7.575-9.998-9.998z"/>
        <path stroke="#000" stroke-width=".75" stroke-linecap="round" stroke-linejoin="round" d="m80.413 33.097 13.104-7.575-9.998-9.998z"/>
        <path fill="#A582BC" d="m80.413 68.494 13.104 7.575-8.84 8.839z"/>
        <path stroke="#000" stroke-width=".75" stroke-linecap="round" stroke-linejoin="round" d="m80.413 68.494 13.104 7.575-8.84 8.839z"/>
        <path fill="#FF8C40" d="m67.494 81.412 7.575 13.104 9.61-9.609z"/>
        <path stroke="#000" stroke-width=".75" stroke-linecap="round" stroke-linejoin="round" d="m67.494 81.412 7.575 13.104 9.61-9.609z"/>
        <path fill="#FF8C40" d="m32.097 81.412-7.575 13.104-9.609-9.609z"/>
        <path stroke="#000" stroke-width=".75" stroke-linecap="round" stroke-linejoin="round" d="m32.097 81.412-7.575 13.104-9.609-9.609z"/>
        <path fill="#FFAC00" d="M19.179 68.494 6.075 76.069l8.838 8.839z"/>
        <path stroke="#000" stroke-width=".75" stroke-linecap="round" stroke-linejoin="round" d="M19.179 68.494 6.075 76.069l8.838 8.839z"/>
        <path fill="#FFAC00" d="m24.522 7.074 7.575 13.104h35.397l7.575-13.104z"/>
        <path stroke="#000" stroke-width=".75" stroke-linecap="round" stroke-linejoin="round" d="m24.522 7.074 7.575 13.104h35.397l7.575-13.104z"/>
        <path fill="#FF8C40" d="m93.517 25.522-13.104 7.575v35.397l13.104 7.575z"/>
        <path stroke="#000" stroke-width=".75" stroke-linecap="round" stroke-linejoin="round" d="m93.517 25.522-13.104 7.575v35.397l13.104 7.575z"/>
        <path fill="#FFF2C1" d="M19.179 33.097 6.075 25.522v50.547l13.104-7.575z"/>
        <path stroke="#000" stroke-width=".75" stroke-linecap="round" stroke-linejoin="round" d="M19.179 33.097 6.075 25.522v50.547l13.104-7.575z"/>
        <path fill="#FFD338" d="M32.097 81.412h35.397l7.575 13.104H24.522z"/>
        <path stroke="#000" stroke-width=".75" stroke-linecap="round" stroke-linejoin="round" d="M32.097 81.412h35.397l7.575 13.104H24.522z"/>
    </g>
</svg>
