<svg width="100" height="100" viewBox="0 0 100 100" xmlns="http://www.w3.org/2000/svg">
    <g fill="none" fill-rule="evenodd">
        <path d="M0 0h100v100H0z"/>
        <path d="m49.993 92.454-2.306-1.484L9.738 51.636l-.028-.041-.234-.26-.198-.541-.15-.39L9 49.887l.042-.316-.02-.27.023-.081-.007-.134.215-.55L23.75 10.341l.005-.124.183-.373.117-.306.082-.092.091-.184.237-.218a2.83 2.83 0 0 1 .334-.331l.091-.083.519-.346.176-.05.195-.111.649-.117S26.7 8 26.76 8h47.916l.228.093c.137.036.271.082.404.142.156.058.361.151.575.298l.095.063.098.081-.004.002c.157.128.273.245.365.347l.241.218.096.19.069.077.158.379 14.564 38.381.126.168.074.358.086.225v.102l.031.108-.011.293.03.22-.085.555-.02.083a2.714 2.714 0 0 1-.274.704l-.037.071-.117.296-.381.383L53.231 90.97l-2.303 1.484a3.048 3.048 0 0 1-.935 0z" fill="#000"/>
        <path d="M89.276 49.651c-.002-.04.01-.08-.003-.12-.002-.006-.008-.01-.01-.016s.001-.012-.002-.018L74.613 10.901c-.002-.006-.01-.01-.012-.017-.004-.007 0-.015-.004-.022-.014-.028-.043-.043-.06-.068-.03-.038-.053-.078-.09-.106l-.022-.017c-.028-.019-.062-.02-.093-.034-.034-.013-.06-.037-.098-.043-.013-.002-.024.005-.037.005-.013 0-.024-.01-.038-.01h-47.4c-.013 0-.024.01-.036.01-.013 0-.026-.007-.038-.005-.037.006-.064.03-.097.043-.032.013-.066.015-.095.034-.008.005-.013.012-.02.017-.039.028-.06.068-.09.106-.019.025-.047.04-.06.068-.004.007-.002.015-.005.022-.002.007-.01.011-.013.017L11.657 49.497c-.002.006 0 .012-.002.018-.002.006-.007.01-.009.016-.012.04 0 .08-.003.12 0 .037-.014.073-.007.11l.004.015c.011.045.04.083.063.124.016.028.02.062.043.087.002.003.008.005.01.008.003.004.003.008.006.011L50.11 89.753a.467.467 0 0 0 .165.111l.002.002a.483.483 0 0 0 .364 0l.002-.002h.004a.476.476 0 0 0 .161-.11l38.348-39.748c.004-.003.004-.007.007-.01l.01-.009c.023-.025.026-.059.042-.087.024-.04.054-.079.064-.124l.004-.016c.007-.036-.006-.072-.007-.109" fill="#000"/>
        <path fill="#EEFDFF" d="M50.46 89.416 88.808 49.67 74.16 11.074h-47.4L12.11 49.67z"/>
        <path stroke="#000" stroke-width=".75" stroke-linecap="round" stroke-linejoin="round" d="M50.46 89.416 88.808 49.67 74.16 11.074h-47.4L12.11 49.67z"/>
        <path fill="#0FF" d="m12.111 49.67 20.32-4.673L50.46 63.683v25.733z"/>
        <path stroke="#000" stroke-width=".75" stroke-linecap="round" stroke-linejoin="round" d="m12.111 49.67 20.32-4.673L50.46 63.683v25.733z"/>
        <path fill="#2B82D8" d="m68.488 44.997 20.32 4.672L50.46 89.416V63.683z"/>
        <path stroke="#000" stroke-width=".75" stroke-linecap="round" stroke-linejoin="round" d="m68.488 44.997 20.32 4.672L50.46 89.416V63.683z"/>
        <path fill="#8E82FF" d="M61.602 26.853 74.16 11.074 88.808 49.67l-20.32-4.672z"/>
        <path stroke="#000" stroke-width=".75" stroke-linecap="round" stroke-linejoin="round" d="M61.602 26.853 74.16 11.074 88.808 49.67l-20.32-4.672z"/>
        <path fill="#16C2F8" d="m39.318 26.853-12.56-15.779H74.16l-12.558 15.78z"/>
        <path stroke="#000" stroke-width=".75" stroke-linecap="round" stroke-linejoin="round" d="m39.318 26.853-12.56-15.779H74.16l-12.558 15.78z"/>
        <path fill="#BFF" d="m26.76 11.074 12.558 15.779-6.887 18.144-20.32 4.672z"/>
        <path stroke="#000" stroke-width=".75" stroke-linecap="round" stroke-linejoin="round" d="m26.76 11.074 12.558 15.779-6.887 18.144-20.32 4.672z"/>
    </g>
</svg>
