<svg width="100" height="100" viewBox="0 0 100 100" xmlns="http://www.w3.org/2000/svg">
    <g fill="none" fill-rule="evenodd">
        <path d="M0 0h100v100H0z"/>
        <path d="M49.86 99.29c-.375 0-.748-.07-1.097-.203l-.249-.047-.278-.204-.247-.128-.126-.15L8.877 69.119s-.201-.291-.206-.296l-.21-.222-.204-.444-.197-.45-.002-.045-.048-.099-.01-.637.03-34.488.09-.297.04-.241.19-.406c.159-.369.49-.79.904-1.102L48.578 1.198l.247-.031.249-.165L50.225 1l.099.028.131.011.181.07c.067.017.135.037.203.061l.396.056.577.474 38.783 29.543.176.049.427.426c.067.062.133.127.195.196l.611.611v.406l.067.17.032.176c.042.162.091.41.091.706v33.528l-.067.144-.001.019-.335.851-.265.292-.149.217-.359.312L51.84 98.574l-.121.141-.297.153-.276.185-.199.038a3.081 3.081 0 0 1-1.087.199" fill="#000"/>
        <path d="M89.563 33.798a.472.472 0 0 0-.14-.195l-.006-.003c-.002-.001-.002-.002-.002-.003L50.155 3.689c-.008-.005-.018-.002-.025-.008a.458.458 0 0 0-.21-.075c-.018-.003-.03-.013-.049-.014l-.01-.002h-.01c-.017 0-.03.012-.046.014a.466.466 0 0 0-.213.075c-.007.004-.015.002-.022.007l-38.756 28.77v.003a.475.475 0 0 0-.149.193c-.012.025-.012.05-.019.077-.01.039-.027.076-.027.118l-.03 34.079c0 .02.016.036.018.057l.001.01c.005.03.004.055.014.083.004.014.001.03.006.043.01.02.03.033.041.053a.487.487 0 0 0 .057.072c.02.022.032.05.055.068h.001l38.786 29.29c.011.009.026.006.037.013.015.01.021.027.038.035a.485.485 0 0 0 .433.001c.015-.008.022-.024.036-.033.012-.007.027-.005.038-.013l39.261-29.29.002-.003c.024-.017.036-.046.056-.07a.421.421 0 0 0 .055-.07c.012-.02.032-.032.041-.053.006-.013.002-.028.006-.041.01-.027.01-.052.013-.08a.57.57 0 0 1 .003-.017c.003-.02.018-.035.018-.055V33.983c0-.04-.016-.076-.026-.114-.006-.025-.006-.048-.016-.071" fill="#000"/>
        <path fill="#D5BDFF" d="m49.86 4.075 19.858 34.433h-39.24z"/>
        <path stroke="#000" stroke-width=".75" stroke-linecap="round" stroke-linejoin="round" d="m49.86 4.075 19.858 34.433h-39.24z"/>
        <path fill="#BE98FE" d="M30.478 38.508 50.103 72.94l-39.03-6.015z"/>
        <path stroke="#000" stroke-width=".75" stroke-linecap="round" stroke-linejoin="round" d="M30.478 38.508 50.103 72.94l-39.03-6.015z"/>
        <path fill="#A07FEE" d="M69.727 38.508 49.86 72.94l39.26-6.015z"/>
        <path stroke="#000" stroke-width=".75" stroke-linecap="round" stroke-linejoin="round" d="M69.727 38.508 49.86 72.94l39.26-6.015z"/>
        <path fill="#FFF8FF" d="m49.86 72.94 19.858-34.432h-39.24z"/>
        <path stroke="#000" stroke-width=".75" stroke-linecap="round" stroke-linejoin="round" d="m49.86 72.94 19.858-34.432h-39.24z"/>
        <path fill="#F0D9FF" d="M11.104 32.847 49.86 4.075 30.478 38.508z"/>
        <path stroke="#000" stroke-width=".75" stroke-linecap="round" stroke-linejoin="round" d="M11.104 32.847 49.86 4.075 30.478 38.508z"/>
        <path fill="#BE98FE" d="M69.718 38.508 49.86 4.075l39.26 29.908z"/>
        <path stroke="#000" stroke-width=".75" stroke-linecap="round" stroke-linejoin="round" d="M69.718 38.508 49.86 4.075l39.26 29.908z"/>
        <path fill="#FFC8FF" d="m11.104 32.847-.03 34.08 19.404-28.419z"/>
        <path stroke="#000" stroke-width=".75" stroke-linecap="round" stroke-linejoin="round" d="m11.104 32.847-.03 34.08 19.404-28.419z"/>
        <path fill="#A1AAFF" d="m69.718 38.508 19.403-4.525v32.943z"/>
        <path stroke="#000" stroke-width=".75" stroke-linecap="round" stroke-linejoin="round" d="m69.718 38.508 19.403-4.525v32.943z"/>
        <path fill="#A1AAFF" d="m11.074 66.926 38.787 29.29V72.941z"/>
        <path stroke="#000" stroke-width=".75" stroke-linecap="round" stroke-linejoin="round" d="m11.074 66.926 38.787 29.29V72.941z"/>
        <path fill="#4949BA" d="m89.12 66.926-39.26 6.015v23.275z"/>
        <path stroke="#000" stroke-width=".75" stroke-linecap="round" stroke-linejoin="round" d="m89.12 66.926-39.26 6.015v23.275z"/>
    </g>
</svg>
